<mxfile host="app.diagrams.net" agent="Mozilla/5.0 (Windows NT 10.0; Win64; x64) AppleWebKit/537.36 (KHTML, like Gecko) Chrome/131.0.0.0 Safari/537.36" version="25.0.1">
  <diagram name="Page-1" id="03018318-947c-dd8e-b7a3-06fadd420f32">
    <mxGraphModel dx="3354" dy="1258" grid="1" gridSize="10" guides="1" tooltips="1" connect="1" arrows="1" fold="1" page="1" pageScale="1" pageWidth="1100" pageHeight="850" background="none" math="0" shadow="0">
      <root>
        <mxCell id="0" />
        <mxCell id="1" parent="0" />
        <mxCell id="677b7b8949515195-1" value="" style="whiteSpace=wrap;html=1;rounded=0;shadow=0;labelBackgroundColor=none;strokeColor=#000000;strokeWidth=1;fillColor=none;fontFamily=Verdana;fontSize=12;fontColor=#000000;align=center;comic=1;" parent="1" vertex="1">
          <mxGeometry x="20" y="40" width="1060" height="790" as="geometry" />
        </mxCell>
        <mxCell id="677b7b8949515195-2" value="4th Wall Cafe" style="whiteSpace=wrap;html=1;rounded=0;shadow=0;labelBackgroundColor=none;strokeWidth=1;fontFamily=Verdana;fontSize=28;align=center;comic=1;" parent="1" vertex="1">
          <mxGeometry x="40" y="60" width="300" height="50" as="geometry" />
        </mxCell>
        <mxCell id="677b7b8949515195-4" value="Menu" style="text;html=1;points=[];align=left;verticalAlign=top;spacingTop=-4;fontSize=14;fontFamily=Verdana" parent="1" vertex="1">
          <mxGeometry x="780" y="50" width="60" height="20" as="geometry" />
        </mxCell>
        <mxCell id="677b7b8949515195-5" value="Reports" style="text;html=1;points=[];align=left;verticalAlign=top;spacingTop=-4;fontSize=14;fontFamily=Verdana" parent="1" vertex="1">
          <mxGeometry x="847.6" y="50" width="60" height="20" as="geometry" />
        </mxCell>
        <mxCell id="677b7b8949515195-6" value="Manage" style="text;html=1;points=[];align=left;verticalAlign=top;spacingTop=-4;fontSize=14;fontFamily=Verdana" parent="1" vertex="1">
          <mxGeometry x="930" y="50" width="60" height="20" as="geometry" />
        </mxCell>
        <mxCell id="677b7b8949515195-7" value="Logout" style="text;html=1;points=[];align=left;verticalAlign=top;spacingTop=-4;fontSize=14;fontFamily=Verdana" parent="1" vertex="1">
          <mxGeometry x="1000" y="50" width="60" height="20" as="geometry" />
        </mxCell>
        <mxCell id="677b7b8949515195-9" value="" style="line;strokeWidth=1;html=1;rounded=0;shadow=0;labelBackgroundColor=none;fillColor=none;fontFamily=Verdana;fontSize=14;fontColor=#000000;align=center;comic=1;" parent="1" vertex="1">
          <mxGeometry x="20" y="140" width="1060" height="10" as="geometry" />
        </mxCell>
        <mxCell id="677b7b8949515195-15" value="&lt;div style=&quot;&quot;&gt;&lt;font style=&quot;font-size: 18px;&quot;&gt;by Thomas Roth&lt;/font&gt;&lt;/div&gt;" style="whiteSpace=wrap;html=1;rounded=0;shadow=0;labelBackgroundColor=none;strokeWidth=1;fillColor=none;fontFamily=Verdana;fontSize=12;align=left;verticalAlign=top;spacing=10;comic=1;" parent="1" vertex="1">
          <mxGeometry x="20" y="700" width="580" height="130" as="geometry" />
        </mxCell>
        <mxCell id="677b7b8949515195-26" value="" style="whiteSpace=wrap;html=1;rounded=0;shadow=0;labelBackgroundColor=none;strokeWidth=1;fillColor=none;fontFamily=Verdana;fontSize=12;align=center;comic=1;" parent="1" vertex="1">
          <mxGeometry x="600" y="700" width="480" height="130" as="geometry" />
        </mxCell>
        <mxCell id="677b7b8949515195-42" value="External Links" style="text;html=1;points=[];align=left;verticalAlign=top;spacingTop=-4;fontSize=14;fontFamily=Verdana" parent="1" vertex="1">
          <mxGeometry x="640" y="718.68" width="170" height="20" as="geometry" />
        </mxCell>
        <mxCell id="xNktOV-b6tnxYs5pCYwV-17" value="" style="dashed=0;outlineConnect=0;html=1;align=center;labelPosition=center;verticalLabelPosition=bottom;verticalAlign=top;shape=mxgraph.webicons.github;gradientColor=#DFDEDE" parent="1" vertex="1">
          <mxGeometry x="650" y="748.68" width="42.4" height="42.4" as="geometry" />
        </mxCell>
        <mxCell id="xNktOV-b6tnxYs5pCYwV-18" value="" style="dashed=0;outlineConnect=0;html=1;align=center;labelPosition=center;verticalLabelPosition=bottom;verticalAlign=top;shape=mxgraph.weblogos.linkedin;fillColor=#0095DB;gradientColor=#006391" parent="1" vertex="1">
          <mxGeometry x="860" y="748.91" width="27.4" height="28.93" as="geometry" />
        </mxCell>
        <mxCell id="xNktOV-b6tnxYs5pCYwV-19" value="My Github" style="text;html=1;align=left;verticalAlign=middle;whiteSpace=wrap;rounded=0;" parent="1" vertex="1">
          <mxGeometry x="692.4" y="754.88" width="60" height="30" as="geometry" />
        </mxCell>
        <mxCell id="xNktOV-b6tnxYs5pCYwV-20" value="&lt;font style=&quot;font-size: 18px;&quot;&gt;Contact Me&lt;/font&gt;" style="text;strokeColor=none;fillColor=none;html=1;fontSize=24;fontStyle=1;verticalAlign=middle;align=center;" parent="1" vertex="1">
          <mxGeometry x="820" y="708.91" width="100" height="40" as="geometry" />
        </mxCell>
        <mxCell id="xNktOV-b6tnxYs5pCYwV-22" value="" style="shape=message;html=1;html=1;outlineConnect=0;labelPosition=center;verticalLabelPosition=bottom;align=center;verticalAlign=top;" parent="1" vertex="1">
          <mxGeometry x="853.7" y="793.25" width="40" height="25.66" as="geometry" />
        </mxCell>
        <mxCell id="xNktOV-b6tnxYs5pCYwV-23" value="Linked In" style="text;html=1;align=center;verticalAlign=middle;whiteSpace=wrap;rounded=0;" parent="1" vertex="1">
          <mxGeometry x="900" y="752.17" width="60" height="30" as="geometry" />
        </mxCell>
        <mxCell id="xNktOV-b6tnxYs5pCYwV-24" value="thomas.roth@aon.at" style="text;html=1;align=center;verticalAlign=middle;whiteSpace=wrap;rounded=0;" parent="1" vertex="1">
          <mxGeometry x="930" y="791.0799999999999" width="60" height="30" as="geometry" />
        </mxCell>
        <mxCell id="z-67hpvK6l74vBA2kNS7-2" value="" style="line;strokeWidth=2;html=1;" parent="1" vertex="1">
          <mxGeometry x="930" y="70" width="60" height="10" as="geometry" />
        </mxCell>
        <mxCell id="HEE8X-NlxO-QjpKQm_0w-64" value="&lt;span style=&quot;font-size: 12px;&quot;&gt;4thWallCafe/Manage/Servers&lt;/span&gt;" style="html=1;strokeWidth=1;shadow=0;dashed=0;shape=mxgraph.ios7ui.url;fillColor=#e0e0e0;strokeColor=#c0c0c0;buttonText=;strokeColor2=#222222;fontColor=#222222;fontSize=8;spacingTop=2;align=center;whiteSpace=wrap;" parent="1" vertex="1">
          <mxGeometry x="35" y="10" width="1030" height="20" as="geometry" />
        </mxCell>
        <mxCell id="BZrCg_D0p4DdfBS6RXgq-1" value="Â Last Name" style="fillColor=none;strokeColor=none;align=left;fontSize=14;" parent="1" vertex="1">
          <mxGeometry width="260" height="40" relative="1" as="geometry">
            <mxPoint x="80" y="220" as="offset" />
          </mxGeometry>
        </mxCell>
        <mxCell id="BZrCg_D0p4DdfBS6RXgq-2" value="" style="html=1;shadow=0;dashed=0;shape=mxgraph.bootstrap.rrect;rSize=5;fillColor=none;strokeColor=#999999;align=left;spacing=15;fontSize=14;fontColor=#6C767D;" parent="1" vertex="1">
          <mxGeometry width="800" height="30" relative="1" as="geometry">
            <mxPoint x="80" y="260" as="offset" />
          </mxGeometry>
        </mxCell>
        <mxCell id="BZrCg_D0p4DdfBS6RXgq-7" value="Save" style="html=1;shadow=0;dashed=0;shape=mxgraph.bootstrap.rrect;rSize=5;fillColor=#0085FC;strokeColor=none;align=center;fontSize=14;fontColor=#FFFFFF;" parent="1" vertex="1">
          <mxGeometry width="70" height="40" relative="1" as="geometry">
            <mxPoint x="90" y="610" as="offset" />
          </mxGeometry>
        </mxCell>
        <mxCell id="BZrCg_D0p4DdfBS6RXgq-8" value="New Server / Edit Server" style="text;strokeColor=none;fillColor=none;html=1;fontSize=24;fontStyle=1;verticalAlign=middle;align=center;" parent="1" vertex="1">
          <mxGeometry x="160" y="170" width="100" height="40" as="geometry" />
        </mxCell>
        <mxCell id="BZrCg_D0p4DdfBS6RXgq-9" value="First name" style="fillColor=none;strokeColor=none;align=left;fontSize=14;" parent="1" vertex="1">
          <mxGeometry width="260" height="40" relative="1" as="geometry">
            <mxPoint x="80" y="300" as="offset" />
          </mxGeometry>
        </mxCell>
        <mxCell id="BZrCg_D0p4DdfBS6RXgq-10" value="" style="html=1;shadow=0;dashed=0;shape=mxgraph.bootstrap.rrect;rSize=5;fillColor=none;strokeColor=#999999;align=left;spacing=15;fontSize=14;fontColor=#6C767D;" parent="1" vertex="1">
          <mxGeometry width="800" height="30" relative="1" as="geometry">
            <mxPoint x="80" y="340" as="offset" />
          </mxGeometry>
        </mxCell>
        <mxCell id="BZrCg_D0p4DdfBS6RXgq-11" value="Date Of Birth" style="fillColor=none;strokeColor=none;align=left;fontSize=14;" parent="1" vertex="1">
          <mxGeometry width="260" height="40" relative="1" as="geometry">
            <mxPoint x="80" y="380" as="offset" />
          </mxGeometry>
        </mxCell>
        <mxCell id="BZrCg_D0p4DdfBS6RXgq-13" value="" style="strokeWidth=1;shadow=0;dashed=0;align=center;html=1;shape=mxgraph.mockup.forms.rrect;rSize=5;strokeColor=#999999;fillColor=#ffffff;" parent="1" vertex="1">
          <mxGeometry x="180" y="390" width="160" height="175" as="geometry" />
        </mxCell>
        <mxCell id="BZrCg_D0p4DdfBS6RXgq-14" value="October 2014" style="strokeWidth=1;shadow=0;dashed=0;align=center;html=1;shape=mxgraph.mockup.forms.anchor;fontColor=#999999;" parent="BZrCg_D0p4DdfBS6RXgq-13" vertex="1">
          <mxGeometry x="30" y="8" width="100" height="20" as="geometry" />
        </mxCell>
        <mxCell id="BZrCg_D0p4DdfBS6RXgq-15" value="&lt;" style="strokeWidth=1;shadow=0;dashed=0;align=center;html=1;shape=mxgraph.mockup.forms.rrect;rSize=4;strokeColor=#999999;fontColor=#008cff;fontSize=19;fontStyle=1;" parent="BZrCg_D0p4DdfBS6RXgq-13" vertex="1">
          <mxGeometry x="8" y="8" width="25" height="20" as="geometry" />
        </mxCell>
        <mxCell id="BZrCg_D0p4DdfBS6RXgq-16" value="&gt;" style="strokeWidth=1;shadow=0;dashed=0;align=center;html=1;shape=mxgraph.mockup.forms.rrect;rSize=4;strokeColor=#999999;fontColor=#008cff;fontSize=19;fontStyle=1;" parent="BZrCg_D0p4DdfBS6RXgq-13" vertex="1">
          <mxGeometry x="127" y="8" width="25" height="20" as="geometry" />
        </mxCell>
        <mxCell id="BZrCg_D0p4DdfBS6RXgq-17" value="Mo" style="strokeWidth=1;shadow=0;dashed=0;align=center;html=1;shape=mxgraph.mockup.forms.anchor;fontColor=#999999;" parent="BZrCg_D0p4DdfBS6RXgq-13" vertex="1">
          <mxGeometry x="10" y="28" width="20" height="20" as="geometry" />
        </mxCell>
        <mxCell id="BZrCg_D0p4DdfBS6RXgq-18" value="Tu" style="strokeWidth=1;shadow=0;dashed=0;align=center;html=1;shape=mxgraph.mockup.forms.anchor;fontColor=#999999;" parent="BZrCg_D0p4DdfBS6RXgq-13" vertex="1">
          <mxGeometry x="30" y="28" width="20" height="20" as="geometry" />
        </mxCell>
        <mxCell id="BZrCg_D0p4DdfBS6RXgq-19" value="We" style="strokeWidth=1;shadow=0;dashed=0;align=center;html=1;shape=mxgraph.mockup.forms.anchor;fontColor=#999999;" parent="BZrCg_D0p4DdfBS6RXgq-13" vertex="1">
          <mxGeometry x="50" y="28" width="20" height="20" as="geometry" />
        </mxCell>
        <mxCell id="BZrCg_D0p4DdfBS6RXgq-20" value="Th" style="strokeWidth=1;shadow=0;dashed=0;align=center;html=1;shape=mxgraph.mockup.forms.anchor;fontColor=#999999;" parent="BZrCg_D0p4DdfBS6RXgq-13" vertex="1">
          <mxGeometry x="70" y="28" width="20" height="20" as="geometry" />
        </mxCell>
        <mxCell id="BZrCg_D0p4DdfBS6RXgq-21" value="Fr" style="strokeWidth=1;shadow=0;dashed=0;align=center;html=1;shape=mxgraph.mockup.forms.anchor;fontColor=#999999;" parent="BZrCg_D0p4DdfBS6RXgq-13" vertex="1">
          <mxGeometry x="90" y="28" width="20" height="20" as="geometry" />
        </mxCell>
        <mxCell id="BZrCg_D0p4DdfBS6RXgq-22" value="Sa" style="strokeWidth=1;shadow=0;dashed=0;align=center;html=1;shape=mxgraph.mockup.forms.anchor;fontColor=#999999;" parent="BZrCg_D0p4DdfBS6RXgq-13" vertex="1">
          <mxGeometry x="110" y="28" width="20" height="20" as="geometry" />
        </mxCell>
        <mxCell id="BZrCg_D0p4DdfBS6RXgq-23" value="Su" style="strokeWidth=1;shadow=0;dashed=0;align=center;html=1;shape=mxgraph.mockup.forms.anchor;fontColor=#999999;" parent="BZrCg_D0p4DdfBS6RXgq-13" vertex="1">
          <mxGeometry x="130" y="28" width="20" height="20" as="geometry" />
        </mxCell>
        <mxCell id="BZrCg_D0p4DdfBS6RXgq-24" value="1" style="strokeWidth=1;shadow=0;dashed=0;align=center;html=1;shape=mxgraph.mockup.forms.rrect;rSize=0;strokeColor=#999999;fontColor=#999999;" parent="BZrCg_D0p4DdfBS6RXgq-13" vertex="1">
          <mxGeometry x="10" y="48" width="20" height="20" as="geometry" />
        </mxCell>
        <mxCell id="BZrCg_D0p4DdfBS6RXgq-25" value="2" style="strokeWidth=1;shadow=0;dashed=0;align=center;html=1;shape=mxgraph.mockup.forms.rrect;rSize=0;strokeColor=#999999;fontColor=#999999;" parent="BZrCg_D0p4DdfBS6RXgq-13" vertex="1">
          <mxGeometry x="30" y="48" width="20" height="20" as="geometry" />
        </mxCell>
        <mxCell id="BZrCg_D0p4DdfBS6RXgq-26" value="3" style="strokeWidth=1;shadow=0;dashed=0;align=center;html=1;shape=mxgraph.mockup.forms.rrect;rSize=0;strokeColor=#999999;fontColor=#999999;" parent="BZrCg_D0p4DdfBS6RXgq-13" vertex="1">
          <mxGeometry x="50" y="48" width="20" height="20" as="geometry" />
        </mxCell>
        <mxCell id="BZrCg_D0p4DdfBS6RXgq-27" value="4" style="strokeWidth=1;shadow=0;dashed=0;align=center;html=1;shape=mxgraph.mockup.forms.rrect;rSize=0;strokeColor=#999999;fontColor=#999999;" parent="BZrCg_D0p4DdfBS6RXgq-13" vertex="1">
          <mxGeometry x="70" y="48" width="20" height="20" as="geometry" />
        </mxCell>
        <mxCell id="BZrCg_D0p4DdfBS6RXgq-28" value="5" style="strokeWidth=1;shadow=0;dashed=0;align=center;html=1;shape=mxgraph.mockup.forms.rrect;rSize=0;strokeColor=#999999;fontColor=#999999;" parent="BZrCg_D0p4DdfBS6RXgq-13" vertex="1">
          <mxGeometry x="90" y="48" width="20" height="20" as="geometry" />
        </mxCell>
        <mxCell id="BZrCg_D0p4DdfBS6RXgq-29" value="6" style="strokeWidth=1;shadow=0;dashed=0;align=center;html=1;shape=mxgraph.mockup.forms.rrect;rSize=0;strokeColor=#999999;fontColor=#999999;" parent="BZrCg_D0p4DdfBS6RXgq-13" vertex="1">
          <mxGeometry x="110" y="48" width="20" height="20" as="geometry" />
        </mxCell>
        <mxCell id="BZrCg_D0p4DdfBS6RXgq-30" value="7" style="strokeWidth=1;shadow=0;dashed=0;align=center;html=1;shape=mxgraph.mockup.forms.rrect;rSize=0;strokeColor=#999999;fontColor=#999999;" parent="BZrCg_D0p4DdfBS6RXgq-13" vertex="1">
          <mxGeometry x="130" y="48" width="20" height="20" as="geometry" />
        </mxCell>
        <mxCell id="BZrCg_D0p4DdfBS6RXgq-31" value="8" style="strokeWidth=1;shadow=0;dashed=0;align=center;html=1;shape=mxgraph.mockup.forms.rrect;rSize=0;strokeColor=#999999;fontColor=#999999;" parent="BZrCg_D0p4DdfBS6RXgq-13" vertex="1">
          <mxGeometry x="10" y="68" width="20" height="20" as="geometry" />
        </mxCell>
        <mxCell id="BZrCg_D0p4DdfBS6RXgq-32" value="9" style="strokeWidth=1;shadow=0;dashed=0;align=center;html=1;shape=mxgraph.mockup.forms.rrect;rSize=0;strokeColor=#999999;fontColor=#999999;" parent="BZrCg_D0p4DdfBS6RXgq-13" vertex="1">
          <mxGeometry x="30" y="68" width="20" height="20" as="geometry" />
        </mxCell>
        <mxCell id="BZrCg_D0p4DdfBS6RXgq-33" value="10" style="strokeWidth=1;shadow=0;dashed=0;align=center;html=1;shape=mxgraph.mockup.forms.rrect;rSize=0;strokeColor=#999999;fontColor=#999999;" parent="BZrCg_D0p4DdfBS6RXgq-13" vertex="1">
          <mxGeometry x="50" y="68" width="20" height="20" as="geometry" />
        </mxCell>
        <mxCell id="BZrCg_D0p4DdfBS6RXgq-34" value="11" style="strokeWidth=1;shadow=0;dashed=0;align=center;html=1;shape=mxgraph.mockup.forms.rrect;rSize=0;strokeColor=#999999;fontColor=#999999;" parent="BZrCg_D0p4DdfBS6RXgq-13" vertex="1">
          <mxGeometry x="70" y="68" width="20" height="20" as="geometry" />
        </mxCell>
        <mxCell id="BZrCg_D0p4DdfBS6RXgq-35" value="12" style="strokeWidth=1;shadow=0;dashed=0;align=center;html=1;shape=mxgraph.mockup.forms.rrect;rSize=0;strokeColor=#999999;fontColor=#999999;" parent="BZrCg_D0p4DdfBS6RXgq-13" vertex="1">
          <mxGeometry x="90" y="68" width="20" height="20" as="geometry" />
        </mxCell>
        <mxCell id="BZrCg_D0p4DdfBS6RXgq-36" value="13" style="strokeWidth=1;shadow=0;dashed=0;align=center;html=1;shape=mxgraph.mockup.forms.rrect;rSize=0;strokeColor=#999999;fontColor=#999999;" parent="BZrCg_D0p4DdfBS6RXgq-13" vertex="1">
          <mxGeometry x="110" y="68" width="20" height="20" as="geometry" />
        </mxCell>
        <mxCell id="BZrCg_D0p4DdfBS6RXgq-37" value="14" style="strokeWidth=1;shadow=0;dashed=0;align=center;html=1;shape=mxgraph.mockup.forms.rrect;rSize=0;strokeColor=#999999;fontColor=#999999;" parent="BZrCg_D0p4DdfBS6RXgq-13" vertex="1">
          <mxGeometry x="130" y="68" width="20" height="20" as="geometry" />
        </mxCell>
        <mxCell id="BZrCg_D0p4DdfBS6RXgq-38" value="15" style="strokeWidth=1;shadow=0;dashed=0;align=center;html=1;shape=mxgraph.mockup.forms.rrect;rSize=0;strokeColor=#999999;fontColor=#999999;" parent="BZrCg_D0p4DdfBS6RXgq-13" vertex="1">
          <mxGeometry x="10" y="88" width="20" height="20" as="geometry" />
        </mxCell>
        <mxCell id="BZrCg_D0p4DdfBS6RXgq-39" value="16" style="strokeWidth=1;shadow=0;dashed=0;align=center;html=1;shape=mxgraph.mockup.forms.rrect;rSize=0;strokeColor=#999999;fontColor=#999999;" parent="BZrCg_D0p4DdfBS6RXgq-13" vertex="1">
          <mxGeometry x="30" y="88" width="20" height="20" as="geometry" />
        </mxCell>
        <mxCell id="BZrCg_D0p4DdfBS6RXgq-40" value="17" style="strokeWidth=1;shadow=0;dashed=0;align=center;html=1;shape=mxgraph.mockup.forms.rrect;rSize=0;strokeColor=#999999;fontColor=#999999;" parent="BZrCg_D0p4DdfBS6RXgq-13" vertex="1">
          <mxGeometry x="50" y="88" width="20" height="20" as="geometry" />
        </mxCell>
        <mxCell id="BZrCg_D0p4DdfBS6RXgq-41" value="18" style="strokeWidth=1;shadow=0;dashed=0;align=center;html=1;shape=mxgraph.mockup.forms.rrect;rSize=0;strokeColor=#999999;fontColor=#999999;" parent="BZrCg_D0p4DdfBS6RXgq-13" vertex="1">
          <mxGeometry x="70" y="88" width="20" height="20" as="geometry" />
        </mxCell>
        <mxCell id="BZrCg_D0p4DdfBS6RXgq-42" value="19" style="strokeWidth=1;shadow=0;dashed=0;align=center;html=1;shape=mxgraph.mockup.forms.rrect;rSize=0;strokeColor=#999999;fontColor=#999999;" parent="BZrCg_D0p4DdfBS6RXgq-13" vertex="1">
          <mxGeometry x="90" y="88" width="20" height="20" as="geometry" />
        </mxCell>
        <mxCell id="BZrCg_D0p4DdfBS6RXgq-43" value="20" style="strokeWidth=1;shadow=0;dashed=0;align=center;html=1;shape=mxgraph.mockup.forms.rrect;rSize=0;strokeColor=#999999;fontColor=#999999;" parent="BZrCg_D0p4DdfBS6RXgq-13" vertex="1">
          <mxGeometry x="110" y="88" width="20" height="20" as="geometry" />
        </mxCell>
        <mxCell id="BZrCg_D0p4DdfBS6RXgq-44" value="21" style="strokeWidth=1;shadow=0;dashed=0;align=center;html=1;shape=mxgraph.mockup.forms.rrect;rSize=0;strokeColor=#999999;fontColor=#999999;" parent="BZrCg_D0p4DdfBS6RXgq-13" vertex="1">
          <mxGeometry x="130" y="88" width="20" height="20" as="geometry" />
        </mxCell>
        <mxCell id="BZrCg_D0p4DdfBS6RXgq-45" value="22" style="strokeWidth=1;shadow=0;dashed=0;align=center;html=1;shape=mxgraph.mockup.forms.rrect;rSize=0;strokeColor=#999999;fontColor=#999999;" parent="BZrCg_D0p4DdfBS6RXgq-13" vertex="1">
          <mxGeometry x="10" y="108" width="20" height="20" as="geometry" />
        </mxCell>
        <mxCell id="BZrCg_D0p4DdfBS6RXgq-46" value="23" style="strokeWidth=1;shadow=0;dashed=0;align=center;html=1;shape=mxgraph.mockup.forms.rrect;rSize=0;strokeColor=#999999;fontColor=#999999;" parent="BZrCg_D0p4DdfBS6RXgq-13" vertex="1">
          <mxGeometry x="30" y="108" width="20" height="20" as="geometry" />
        </mxCell>
        <mxCell id="BZrCg_D0p4DdfBS6RXgq-47" value="25" style="strokeWidth=1;shadow=0;dashed=0;align=center;html=1;shape=mxgraph.mockup.forms.rrect;rSize=0;strokeColor=#999999;fontColor=#999999;" parent="BZrCg_D0p4DdfBS6RXgq-13" vertex="1">
          <mxGeometry x="70" y="108" width="20" height="20" as="geometry" />
        </mxCell>
        <mxCell id="BZrCg_D0p4DdfBS6RXgq-48" value="26" style="strokeWidth=1;shadow=0;dashed=0;align=center;html=1;shape=mxgraph.mockup.forms.rrect;rSize=0;strokeColor=#999999;fontColor=#999999;" parent="BZrCg_D0p4DdfBS6RXgq-13" vertex="1">
          <mxGeometry x="90" y="108" width="20" height="20" as="geometry" />
        </mxCell>
        <mxCell id="BZrCg_D0p4DdfBS6RXgq-49" value="27" style="strokeWidth=1;shadow=0;dashed=0;align=center;html=1;shape=mxgraph.mockup.forms.rrect;rSize=0;strokeColor=#999999;fontColor=#999999;" parent="BZrCg_D0p4DdfBS6RXgq-13" vertex="1">
          <mxGeometry x="110" y="108" width="20" height="20" as="geometry" />
        </mxCell>
        <mxCell id="BZrCg_D0p4DdfBS6RXgq-50" value="28" style="strokeWidth=1;shadow=0;dashed=0;align=center;html=1;shape=mxgraph.mockup.forms.rrect;rSize=0;strokeColor=#999999;fontColor=#999999;" parent="BZrCg_D0p4DdfBS6RXgq-13" vertex="1">
          <mxGeometry x="130" y="108" width="20" height="20" as="geometry" />
        </mxCell>
        <mxCell id="BZrCg_D0p4DdfBS6RXgq-51" value="29" style="strokeWidth=1;shadow=0;dashed=0;align=center;html=1;shape=mxgraph.mockup.forms.rrect;rSize=0;strokeColor=#999999;fontColor=#999999;" parent="BZrCg_D0p4DdfBS6RXgq-13" vertex="1">
          <mxGeometry x="10" y="128" width="20" height="20" as="geometry" />
        </mxCell>
        <mxCell id="BZrCg_D0p4DdfBS6RXgq-52" value="30" style="strokeWidth=1;shadow=0;dashed=0;align=center;html=1;shape=mxgraph.mockup.forms.rrect;rSize=0;strokeColor=#999999;fontColor=#999999;" parent="BZrCg_D0p4DdfBS6RXgq-13" vertex="1">
          <mxGeometry x="30" y="128" width="20" height="20" as="geometry" />
        </mxCell>
        <mxCell id="BZrCg_D0p4DdfBS6RXgq-53" value="31" style="strokeWidth=1;shadow=0;dashed=0;align=center;html=1;shape=mxgraph.mockup.forms.rrect;rSize=0;strokeColor=#999999;fontColor=#999999;" parent="BZrCg_D0p4DdfBS6RXgq-13" vertex="1">
          <mxGeometry x="50" y="128" width="20" height="20" as="geometry" />
        </mxCell>
        <mxCell id="BZrCg_D0p4DdfBS6RXgq-54" value="1" style="strokeWidth=1;shadow=0;dashed=0;align=center;html=1;shape=mxgraph.mockup.forms.rrect;rSize=0;strokeColor=#999999;fontColor=#999999;fillColor=#ddeeff;" parent="BZrCg_D0p4DdfBS6RXgq-13" vertex="1">
          <mxGeometry x="70" y="128" width="20" height="20" as="geometry" />
        </mxCell>
        <mxCell id="BZrCg_D0p4DdfBS6RXgq-55" value="2" style="strokeWidth=1;shadow=0;dashed=0;align=center;html=1;shape=mxgraph.mockup.forms.rrect;rSize=0;strokeColor=#999999;fontColor=#999999;fillColor=#ddeeff;" parent="BZrCg_D0p4DdfBS6RXgq-13" vertex="1">
          <mxGeometry x="90" y="128" width="20" height="20" as="geometry" />
        </mxCell>
        <mxCell id="BZrCg_D0p4DdfBS6RXgq-56" value="3" style="strokeWidth=1;shadow=0;dashed=0;align=center;html=1;shape=mxgraph.mockup.forms.rrect;rSize=0;strokeColor=#999999;fontColor=#999999;fillColor=#ddeeff;" parent="BZrCg_D0p4DdfBS6RXgq-13" vertex="1">
          <mxGeometry x="110" y="128" width="20" height="20" as="geometry" />
        </mxCell>
        <mxCell id="BZrCg_D0p4DdfBS6RXgq-57" value="4" style="strokeWidth=1;shadow=0;dashed=0;align=center;html=1;shape=mxgraph.mockup.forms.rrect;rSize=0;strokeColor=#999999;fontColor=#999999;fillColor=#ddeeff;" parent="BZrCg_D0p4DdfBS6RXgq-13" vertex="1">
          <mxGeometry x="130" y="128" width="20" height="20" as="geometry" />
        </mxCell>
        <mxCell id="BZrCg_D0p4DdfBS6RXgq-58" value="5" style="strokeWidth=1;shadow=0;dashed=0;align=center;html=1;shape=mxgraph.mockup.forms.rrect;rSize=0;strokeColor=#999999;fontColor=#999999;fillColor=#ddeeff;" parent="BZrCg_D0p4DdfBS6RXgq-13" vertex="1">
          <mxGeometry x="10" y="148" width="20" height="20" as="geometry" />
        </mxCell>
        <mxCell id="BZrCg_D0p4DdfBS6RXgq-59" value="6" style="strokeWidth=1;shadow=0;dashed=0;align=center;html=1;shape=mxgraph.mockup.forms.rrect;rSize=0;strokeColor=#999999;fontColor=#999999;fillColor=#ddeeff;" parent="BZrCg_D0p4DdfBS6RXgq-13" vertex="1">
          <mxGeometry x="30" y="148" width="20" height="20" as="geometry" />
        </mxCell>
        <mxCell id="BZrCg_D0p4DdfBS6RXgq-60" value="7" style="strokeWidth=1;shadow=0;dashed=0;align=center;html=1;shape=mxgraph.mockup.forms.rrect;rSize=0;strokeColor=#999999;fontColor=#999999;fillColor=#ddeeff;" parent="BZrCg_D0p4DdfBS6RXgq-13" vertex="1">
          <mxGeometry x="50" y="148" width="20" height="20" as="geometry" />
        </mxCell>
        <mxCell id="BZrCg_D0p4DdfBS6RXgq-61" value="8" style="strokeWidth=1;shadow=0;dashed=0;align=center;html=1;shape=mxgraph.mockup.forms.rrect;rSize=0;strokeColor=#999999;fontColor=#999999;fillColor=#ddeeff;" parent="BZrCg_D0p4DdfBS6RXgq-13" vertex="1">
          <mxGeometry x="70" y="148" width="20" height="20" as="geometry" />
        </mxCell>
        <mxCell id="BZrCg_D0p4DdfBS6RXgq-62" value="9" style="strokeWidth=1;shadow=0;dashed=0;align=center;html=1;shape=mxgraph.mockup.forms.rrect;rSize=0;strokeColor=#999999;fontColor=#999999;fillColor=#ddeeff;" parent="BZrCg_D0p4DdfBS6RXgq-13" vertex="1">
          <mxGeometry x="90" y="148" width="20" height="20" as="geometry" />
        </mxCell>
        <mxCell id="BZrCg_D0p4DdfBS6RXgq-63" value="10" style="strokeWidth=1;shadow=0;dashed=0;align=center;html=1;shape=mxgraph.mockup.forms.rrect;rSize=0;strokeColor=#999999;fontColor=#999999;fillColor=#ddeeff;" parent="BZrCg_D0p4DdfBS6RXgq-13" vertex="1">
          <mxGeometry x="110" y="148" width="20" height="20" as="geometry" />
        </mxCell>
        <mxCell id="BZrCg_D0p4DdfBS6RXgq-64" value="11" style="strokeWidth=1;shadow=0;dashed=0;align=center;html=1;shape=mxgraph.mockup.forms.rrect;rSize=0;strokeColor=#999999;fontColor=#999999;fillColor=#ddeeff;" parent="BZrCg_D0p4DdfBS6RXgq-13" vertex="1">
          <mxGeometry x="130" y="148" width="20" height="20" as="geometry" />
        </mxCell>
        <mxCell id="BZrCg_D0p4DdfBS6RXgq-65" value="24" style="strokeWidth=1;shadow=0;dashed=0;align=center;html=1;shape=mxgraph.mockup.forms.rrect;rSize=0;strokeColor=#ff0000;fontColor=#ffffff;strokeWidth=2;fillColor=#008cff;" parent="BZrCg_D0p4DdfBS6RXgq-13" vertex="1">
          <mxGeometry x="50" y="108" width="20" height="20" as="geometry" />
        </mxCell>
        <mxCell id="BZrCg_D0p4DdfBS6RXgq-66" value="Go Back" style="html=1;shadow=0;dashed=0;shape=mxgraph.bootstrap.rrect;rSize=5;strokeColor=none;strokeWidth=1;fillColor=none;fontColor=#0085FC;whiteSpace=wrap;align=center;verticalAlign=middle;spacingLeft=0;fontStyle=0;fontSize=16;spacing=5;" parent="1" vertex="1">
          <mxGeometry x="170" y="610" width="90" height="40" as="geometry" />
        </mxCell>
      </root>
    </mxGraphModel>
  </diagram>
</mxfile>
